<?xml version="1.0" encoding="utf-8"?>
<!-- Generator: Adobe Illustrator 18.1.1, SVG Export Plug-In . SVG Version: 6.00 Build 0)  -->
<!DOCTYPE svg PUBLIC "-//W3C//DTD SVG 1.1//EN" "http://www.w3.org/Graphics/SVG/1.1/DTD/svg11.dtd">
<svg version="1.1" id="Layer_1" xmlns="http://www.w3.org/2000/svg" xmlns:xlink="http://www.w3.org/1999/xlink" x="0px" y="0px"
	 viewBox="0 0 212 264.7" style="enable-background:new 0 0 212 264.7;" xml:space="preserve">
<g>
	<polygon style="fill:#E9B879;" points="152.6,190.5 165.7,249.4 162.6,265.5 143.9,265.5 140.6,198.1 	"/>
	<polygon style="fill:#835731;" points="155.2,202.2 140.9,204.2 141.2,208.8 156.2,206.7 	"/>
	<polygon style="fill:#835731;" points="157,210.3 141.4,212.2 141.6,216.7 158.1,215 	"/>
	<rect x="91.4" y="159.7" style="fill:#D69E63;" width="33.7" height="21"/>
	<path style="fill:#825631;" d="M84.2,58.2L13.6,7.7c0,0-6.2,44.5-5.3,58.9c0.8,12.7,3.9,26.7,12.6,36.6c8.3,9.5,21.9,10.6,31.1,1.7
		L84.2,58.2z"/>
	<path style="fill:#825631;" d="M127.7,58.2l70.6-50.4c0,0,6.2,44.5,5.3,58.9c-0.8,12.7-3.9,26.7-12.6,36.6
		c-8.3,9.5-21.9,10.6-31.1,1.7L127.7,58.2z"/>
	<path style="fill:#E9B879;" d="M145.2,48.9c-5.1-2.7-10.8-4.6-16.9-5.8c2.4-1.6,11-1.7,11-1.7s-2.4-1.6-6.1-2.4
		c-3.7-0.8-9,0.7-9.1,0.7c0,0,0.1,0,0.2-0.1l-0.2,0.1c0,0,4.4-2.6,6-5.9c-1.9,0.6-6,1.8-13.5,3c-15.7,2.5-33.1,7.5-33.1,7.5
		c-7,1.7-13.2,4-17.9,6.7c-32.2,18.4-51.3,58.9-51.3,58.9s25.3,53.2,92.1,53.2c66.2,0,91.9-53.2,91.9-53.2S174.7,64.4,145.2,48.9z"
		/>
	<path style="fill:#D69E63;" d="M79.6,84.4c0,0,9,6.2,10,23.2c0,0-12.1,4.6-25,2.3c15.8-1.8,20.5-6.2,20.5-6.2
		C86.4,96.8,79.6,84.4,79.6,84.4z"/>
	<path style="fill:#FFFFFF;" d="M74.2,80.5c-19-9.2-30.7,13.3-33.5,18c-1,1.7,7.2,6.7,9.7,7.8l0,0c10,5.2,29,4,35.7,1.3
		C86.1,107.5,89.2,87.7,74.2,80.5"/>
	<g>
		<g>
			<defs>
				<rect id="SVGID_1_" x="57.5" y="52.8" width="17" height="18"/>
			</defs>
			<clipPath id="SVGID_2_">
				<use xlink:href="#SVGID_1_"  style="overflow:visible;"/>
			</clipPath>
		</g>
	</g>
	<path style="fill:#D69E63;" d="M131.5,84.4c0,0-9,6.2-10,23.2c0,0,12.1,4.6,25,2.3c-15.8-1.8-20.5-6.2-20.5-6.2
		C124.7,96.8,131.5,84.4,131.5,84.4z"/>
	<path style="fill:#020202;" d="M132.6,93c-0.1,7.3,5.1,13.3,11.7,13.4c6.6,0.1,12-5.7,12.1-13c0.1-7.3-5.1-13.3-11.7-13.4
		C138.1,79.9,132.7,85.7,132.6,93"/>
	<path style="fill:#192C35;" d="M144.5,93.2l8.5,9.2c0,0-3.8,4.1-7.8,4c-6.1-0.1-9.3-4.2-9.3-4.2L144.5,93.2z"/>
	<polygon style="fill:#E9B879;" points="60.3,190.5 47.4,248.3 48.7,265.5 68.5,265.5 72.3,198.1 	"/>
	<path style="fill:#E84524;" d="M137.4,196.9l1.7,6l20.3-9.4c0,0-6.7-13.5-12.5-19.2c-0.2-0.2-0.6-0.4-1-0.8c-0.3-0.3-0.8-0.7-1.3-1
		c-2.8-1.8-7.1-3.7-10.8-5.1c0,0-0.1,0-0.1-0.1c-4.5-1.7-8.4-3-8.4-3s-6.2,13.1-17,13c-10.7,0-17-13-17-13
		c-5.4,0.6-20.1,8.2-20.1,8.2c-7.6,3.2-17.5,21.7-17.5,21.7l20.3,8.7l1.8-5.3L70,265.5h72.8L137.4,196.9z"/>
	<path style="fill:#FFFFFF;" d="M124.9,107.8c6.8,2.7,25.2,3.7,35.2-1.4l0,0c2.5-1.1,10.6-6.6,10.1-7.7
		c-2.4-4.8-14.9-26.7-33.9-17.7C121.3,88.1,124.9,107.8,124.9,107.8"/>
	<rect x="95.2" y="197.6" style="fill:#FFFFFF;" width="4.5" height="4.5"/>
	<rect x="95.2" y="201.7" style="fill:#FFFFFF;" width="4.5" height="4.5"/>
	<rect x="95.2" y="205.8" style="fill:#FFFFFF;" width="4.5" height="4.5"/>
	<rect x="95.2" y="209.9" style="fill:#FFFFFF;" width="4.5" height="4.5"/>
	<rect x="100.3" y="196" style="fill:#FFFFFF;" width="1.1" height="1.1"/>
	<rect x="100.3" y="197" style="fill:#FFFFFF;" width="1.1" height="1.1"/>
	<rect x="100.3" y="198" style="fill:#FFFFFF;" width="1.1" height="1.1"/>
	<rect x="100.3" y="199.1" style="fill:#FFFFFF;" width="1.1" height="1.1"/>
	<rect x="101.4" y="196" style="fill:#FFFFFF;" width="1.1" height="1.1"/>
	<rect x="101.4" y="197" style="fill:#FFFFFF;" width="1.1" height="1.1"/>
	<rect x="101.4" y="198" style="fill:#FFFFFF;" width="1.1" height="1.1"/>
	<rect x="101.4" y="199.1" style="fill:#FFFFFF;" width="1.1" height="1.1"/>
	<rect x="102.7" y="195.4" style="fill:#FFFFFF;" width="1.1" height="1.1"/>
	<rect x="102.4" y="197" style="fill:#FFFFFF;" width="1.1" height="1.1"/>
	<rect x="102.4" y="198" style="fill:#FFFFFF;" width="1.1" height="1.1"/>
	<rect x="102.4" y="199.1" style="fill:#FFFFFF;" width="1.1" height="1.1"/>
	<rect x="108.3" y="189.7" style="fill:#FFFFFF;" width="1.1" height="1.1"/>
	<rect x="103.8" y="196.5" style="fill:#FFFFFF;" width="1.1" height="1.1"/>
	<rect x="103.4" y="198" style="fill:#FFFFFF;" width="1.1" height="1.1"/>
	<rect x="103.4" y="199.1" style="fill:#FFFFFF;" width="1.1" height="1.1"/>
	<rect x="99.3" y="201.7" style="fill:#FFFFFF;" width="4.5" height="4.5"/>
	<rect x="99.3" y="205.8" style="fill:#FFFFFF;" width="4.5" height="4.5"/>
	<rect x="99.3" y="209.9" style="fill:#FFFFFF;" width="4.5" height="4.5"/>
	<rect x="105.8" y="194.6" style="fill:#FFFFFF;" width="1.1" height="1.1"/>
	<rect x="105.8" y="195.6" style="fill:#FFFFFF;" width="1.1" height="1.1"/>
	<rect x="105.8" y="196.7" style="fill:#FFFFFF;" width="1.1" height="1.1"/>
	<rect x="105.8" y="197.7" style="fill:#FFFFFF;" width="1.1" height="1.1"/>
	<rect x="107.3" y="193.7" style="fill:#FFFFFF;" width="1.1" height="1.1"/>
	<rect x="106.8" y="195.6" style="fill:#FFFFFF;" width="1.1" height="1.1"/>
	<rect x="106.8" y="196.7" style="fill:#FFFFFF;" width="1.1" height="1.1"/>
	<rect x="106.8" y="197.7" style="fill:#FFFFFF;" width="1.1" height="1.1"/>
	<rect x="113.1" y="187.5" style="fill:#FFFFFF;" width="1.1" height="1.1"/>
	<rect x="108.5" y="194.9" style="fill:#FFFFFF;" width="1.1" height="1.1"/>
	<rect x="107.9" y="196.7" style="fill:#FFFFFF;" width="1.1" height="1.1"/>
	<rect x="107.9" y="197.7" style="fill:#FFFFFF;" width="1.1" height="1.1"/>
	<rect x="117.8" y="187.5" style="fill:#FFFFFF;" width="1.1" height="1.1"/>
	<rect x="115.2" y="189.9" style="fill:#FFFFFF;" width="1.1" height="1.1"/>
	<rect x="109.7" y="196.1" style="fill:#FFFFFF;" width="1.1" height="1.1"/>
	<rect x="108.9" y="197.7" style="fill:#FFFFFF;" width="1.1" height="1.1"/>
	<rect x="104.7" y="200.4" style="fill:#FFFFFF;" width="1.1" height="1.1"/>
	<rect x="104.7" y="201.4" style="fill:#FFFFFF;" width="1.1" height="1.1"/>
	<rect x="104.7" y="202.4" style="fill:#FFFFFF;" width="1.1" height="1.1"/>
	<rect x="104.7" y="203.4" style="fill:#FFFFFF;" width="1.1" height="1.1"/>
	<rect x="105.7" y="200.4" style="fill:#FFFFFF;" width="1.1" height="1.1"/>
	<rect x="105.7" y="201.4" style="fill:#FFFFFF;" width="1.1" height="1.1"/>
	<rect x="105.7" y="202.4" style="fill:#FFFFFF;" width="1.1" height="1.1"/>
	<rect x="105.7" y="203.4" style="fill:#FFFFFF;" width="1.1" height="1.1"/>
	<rect x="107.1" y="199.9" style="fill:#FFFFFF;" width="1.1" height="1.1"/>
	<rect x="106.8" y="201.4" style="fill:#FFFFFF;" width="1.1" height="1.1"/>
	<rect x="106.8" y="202.4" style="fill:#FFFFFF;" width="1.1" height="1.1"/>
	<rect x="106.8" y="203.4" style="fill:#FFFFFF;" width="1.1" height="1.1"/>
	<rect x="113.4" y="194.8" style="fill:#FFFFFF;" width="1.1" height="1.1"/>
	<rect x="108.3" y="201" style="fill:#FFFFFF;" width="1.1" height="1.1"/>
	<rect x="107.8" y="202.4" style="fill:#FFFFFF;" width="1.1" height="1.1"/>
	<rect x="107.8" y="203.4" style="fill:#FFFFFF;" width="1.1" height="1.1"/>
	<rect x="103.4" y="205.8" style="fill:#FFFFFF;" width="4.5" height="4.5"/>
	<rect x="103.4" y="209.9" style="fill:#FFFFFF;" width="4.5" height="4.5"/>
	<rect x="111.6" y="193.5" style="fill:#FFFFFF;" width="1.1" height="1.1"/>
	<rect x="111.6" y="194.5" style="fill:#FFFFFF;" width="1.1" height="1.1"/>
	<rect x="111.6" y="195.6" style="fill:#FFFFFF;" width="1.1" height="1.1"/>
	<rect x="111.6" y="196.6" style="fill:#FFFFFF;" width="1.1" height="1.1"/>
	<rect x="117.2" y="186.7" style="fill:#FFFFFF;" width="1.1" height="1.1"/>
	<rect x="112.6" y="194.5" style="fill:#FFFFFF;" width="1.1" height="1.1"/>
	<rect x="112.6" y="195.6" style="fill:#FFFFFF;" width="1.1" height="1.1"/>
	<rect x="112.6" y="196.6" style="fill:#FFFFFF;" width="1.1" height="1.1"/>
	<rect x="123.1" y="182.5" style="fill:#FFFFFF;" width="1.1" height="1.1"/>
	<g>
		<g>
			<defs>
				<rect id="SVGID_3_" x="116" y="192.7" width="1.1" height="1.1"/>
			</defs>
			<clipPath id="SVGID_4_">
				<use xlink:href="#SVGID_3_"  style="overflow:visible;"/>
			</clipPath>
			<rect x="116" y="192.7" style="clip-path:url(#SVGID_4_);fill:#FFFFFF;" width="1.1" height="1.1"/>
		</g>
	</g>
	<rect x="113.6" y="195.6" style="fill:#FFFFFF;" width="1.1" height="1.1"/>
	
		<linearGradient id="SVGID_5_" gradientUnits="userSpaceOnUse" x1="131.3893" y1="94.1428" x2="160.5422" y2="94.1428" gradientTransform="matrix(1 0 0 1 -0.1323 0.1345)">
		<stop  offset="0" style="stop-color:#1D9863"/>
		<stop  offset="1" style="stop-color:#238180"/>
	</linearGradient>
	<ellipse style="fill:url(#SVGID_5_);" cx="145.8" cy="94.3" rx="14.9" ry="15.6"/>
	<rect x="113.6" y="196.6" style="fill:#FFFFFF;" width="1.1" height="1.1"/>
	<rect x="129.3" y="179" style="fill:#FFFFFF;" width="1.1" height="1.1"/>
	<rect x="126.5" y="184.7" style="fill:#FFFFFF;" width="1.1" height="1.1"/>
	<rect x="120.8" y="191.3" style="fill:#FFFFFF;" width="1.1" height="1.1"/>
	<rect x="114.6" y="196.6" style="fill:#FFFFFF;" width="1.1" height="1.1"/>
	<rect x="110.5" y="199.3" style="fill:#FFFFFF;" width="1.1" height="1.1"/>
	<rect x="110.5" y="200.3" style="fill:#FFFFFF;" width="1.1" height="1.1"/>
	<rect x="110.5" y="201.3" style="fill:#FFFFFF;" width="1.1" height="1.1"/>
	<rect x="110.5" y="202.3" style="fill:#FFFFFF;" width="1.1" height="1.1"/>
	<rect x="112.1" y="198.4" style="fill:#FFFFFF;" width="1.1" height="1.1"/>
	<rect x="111.5" y="200.3" style="fill:#FFFFFF;" width="1.1" height="1.1"/>
	<rect x="111.5" y="201.3" style="fill:#FFFFFF;" width="1.1" height="1.1"/>
	<rect x="111.5" y="202.3" style="fill:#FFFFFF;" width="1.1" height="1.1"/>
	<rect x="118.7" y="192.7" style="fill:#FFFFFF;" width="1.1" height="1.1"/>
	<rect x="113.3" y="199.6" style="fill:#FFFFFF;" width="1.1" height="1.1"/>
	<rect x="112.5" y="201.3" style="fill:#FFFFFF;" width="1.1" height="1.1"/>
	<rect x="112.5" y="202.3" style="fill:#FFFFFF;" width="1.1" height="1.1"/>
	<rect x="120.9" y="190.9" style="fill:#FFFFFF;" width="1.1" height="1.1"/>
	<rect x="119.2" y="195.2" style="fill:#FFFFFF;" width="1.1" height="1.1"/>
	<rect x="114.5" y="200.8" style="fill:#FFFFFF;" width="1.1" height="1.1"/>
	<rect x="113.5" y="202.3" style="fill:#FFFFFF;" width="1.1" height="1.1"/>
	<rect x="109.1" y="204.7" style="fill:#FFFFFF;" width="1.1" height="1.1"/>
	<rect x="109.1" y="205.8" style="fill:#FFFFFF;" width="1.1" height="1.1"/>
	<rect x="109.1" y="206.8" style="fill:#FFFFFF;" width="1.1" height="1.1"/>
	<rect x="109.1" y="207.8" style="fill:#FFFFFF;" width="1.1" height="1.1"/>
	<rect x="110.1" y="204.7" style="fill:#FFFFFF;" width="1.1" height="1.1"/>
	<rect x="110.1" y="205.8" style="fill:#FFFFFF;" width="1.1" height="1.1"/>
	<rect x="110.1" y="206.8" style="fill:#FFFFFF;" width="1.1" height="1.1"/>
	<rect x="110.1" y="207.8" style="fill:#FFFFFF;" width="1.1" height="1.1"/>
	<rect x="111.6" y="204.3" style="fill:#FFFFFF;" width="1.1" height="1.1"/>
	<rect x="111.1" y="205.8" style="fill:#FFFFFF;" width="1.1" height="1.1"/>
	<rect x="111.1" y="206.8" style="fill:#FFFFFF;" width="1.1" height="1.1"/>
	<rect x="111.1" y="207.8" style="fill:#FFFFFF;" width="1.1" height="1.1"/>
	<rect x="118.6" y="199.9" style="fill:#FFFFFF;" width="1.1" height="1.1"/>
	<rect x="112.7" y="205.5" style="fill:#FFFFFF;" width="1.1" height="1.1"/>
	<rect x="112.2" y="206.8" style="fill:#FFFFFF;" width="1.1" height="1.1"/>
	<rect x="112.2" y="207.8" style="fill:#FFFFFF;" width="1.1" height="1.1"/>
	<rect x="107.5" y="209.9" style="fill:#FFFFFF;" width="4.5" height="4.5"/>
	<polygon style="fill:#835731;" points="57.7,202.2 71.9,204.2 71.7,208.8 56.7,206.7 	"/>
	<polygon style="fill:#835731;" points="55.9,210.3 71.5,212.2 71.3,216.7 54.8,215 	"/>
	
		<linearGradient id="SVGID_6_" gradientUnits="userSpaceOnUse" x1="50.9724" y1="93.8464" x2="80.1254" y2="93.8464" gradientTransform="matrix(1 0 0 1 -0.1323 0.1345)">
		<stop  offset="0" style="stop-color:#1D9863"/>
		<stop  offset="1" style="stop-color:#238180"/>
	</linearGradient>
	<ellipse style="fill:url(#SVGID_6_);" cx="65.4" cy="94" rx="14.9" ry="15.6"/>
	<path style="fill:#020202;" d="M76.1,94.7c0.1,6.2-4.4,11.4-10,11.4c-5.6,0.1-10.3-4.9-10.4-11.1c-0.1-6.2,4.4-11.4,10-11.4
		C71.3,83.5,76,88.5,76.1,94.7"/>
	<path style="fill:#192C35;" d="M65.9,95.2l-7.3,7.6c0,0,3.3,3.4,6.7,3.3c5.2-0.1,8-3.4,8-3.4L65.9,95.2z"/>
	<path style="fill:#020202;" d="M155.3,94.7c0.1,6.2-4.4,11.4-10,11.4c-5.6,0.1-10.3-4.9-10.4-11.1c-0.1-6.2,4.4-11.4,10-11.4
		C150.6,83.5,155.2,88.5,155.3,94.7"/>
	<path style="fill:#192C35;" d="M145.1,95.2l-7.3,7.6c0,0,3.3,3.4,6.7,3.3c5.2-0.1,8-3.4,8-3.4L145.1,95.2z"/>
	<path style="fill:#825631;" d="M152.6,53.4c0,0-1.7,9.6-9.7,17.3c0,0,14.5-2.5,20.3-8.5C163.1,62.2,158,57,152.6,53.4z"/>
	<path style="fill:#825631;" d="M60.4,53.4c0,0,1.7,9.6,9.7,17.3c0,0-14.5-2.6-20.2-8.5C49.9,62.2,58.6,54.6,60.4,53.4z"/>
	<path style="fill:#483729;" d="M68.5,49.4l2.1-1l-57-41.4L50,62.2C54.2,58.5,60.3,53.4,68.5,49.4z"/>
	<path style="fill:#483729;" d="M163.1,62.2l35.3-54.5l-55.8,39.9l2.9,1.4C149.6,51.3,156.2,55.4,163.1,62.2z"/>
	<g>
		<path style="fill:#FFFFFF;" d="M82.2,227.6c0.2,0.1,0.7,0.3,1.1,0.3c0.5,0,0.7-0.2,0.7-0.5c0-0.3-0.2-0.5-0.7-0.7
			c-0.9-0.4-1.2-0.8-1.2-1.4c0-0.8,0.7-1.5,1.7-1.5c0.5,0,0.9,0.1,1.2,0.3l-0.2,0.8c-0.2-0.1-0.5-0.3-0.9-0.3
			c-0.4,0-0.6,0.2-0.6,0.5c0,0.3,0.2,0.4,0.8,0.7c0.8,0.3,1.2,0.8,1.2,1.4c0,0.9-0.7,1.5-1.8,1.5c-0.5,0-1-0.1-1.3-0.3L82.2,227.6z"
			/>
		<path style="fill:#FFFFFF;" d="M89.5,227.5c0,0.4,0,0.8,0.1,1.1h-1l-0.1-0.5h0c-0.3,0.4-0.7,0.6-1.3,0.6c-0.9,0-1.4-0.7-1.4-1.4
			c0-1.2,1.1-1.8,2.6-1.8v-0.1c0-0.4-0.1-0.8-0.9-0.8c-0.4,0-0.9,0.1-1.2,0.3l-0.2-0.8c0.3-0.2,0.9-0.4,1.6-0.4c1.4,0,1.8,0.9,1.8,2
			V227.5z M88.4,226.3c-0.7,0-1.5,0.2-1.5,0.9c0,0.5,0.3,0.7,0.6,0.7c0.4,0,0.7-0.3,0.8-0.6c0-0.1,0-0.2,0-0.3V226.3z"/>
		<path style="fill:#FFFFFF;" d="M90.7,225.3c0-0.5,0-1,0-1.4h1l0.1,0.7h0c0.2-0.4,0.7-0.8,1.4-0.8c0.8,0,1.5,0.6,1.5,1.9v2.9
			l-1.2,0l0-2.8c0-0.6-0.2-1.1-0.8-1.1c-0.4,0-0.7,0.3-0.8,0.7c0,0.1-0.1,0.3-0.1,0.4l0,2.8h-1.2V225.3z"/>
		<path style="fill:#FFFFFF;" d="M99.9,221.8l0,5.6c0,0.5,0,1,0,1.3l-1,0l-0.1-0.7h0c-0.3,0.5-0.8,0.8-1.4,0.8c-1.1,0-1.9-1-1.9-2.4
			c0-1.6,0.9-2.5,1.9-2.5c0.6,0,1,0.2,1.2,0.6h0v-2.6H99.9z M98.8,225.8c0-0.1,0-0.2,0-0.3c-0.1-0.4-0.4-0.8-0.9-0.8
			c-0.7,0-1.1,0.7-1.1,1.6c0,0.9,0.4,1.5,1,1.5c0.4,0,0.8-0.3,0.9-0.8c0-0.1,0-0.2,0-0.3L98.8,225.8z"/>
		<path style="fill:#FFFFFF;" d="M101.1,227.6c0.2,0.1,0.7,0.3,1.1,0.3c0.5,0,0.7-0.2,0.7-0.5c0-0.3-0.2-0.5-0.7-0.7
			c-0.9-0.4-1.2-0.8-1.2-1.4c0-0.8,0.7-1.5,1.7-1.5c0.5,0,0.9,0.1,1.2,0.3l-0.2,0.8c-0.2-0.1-0.5-0.3-0.9-0.3
			c-0.4,0-0.6,0.2-0.6,0.5c0,0.3,0.2,0.4,0.8,0.7c0.8,0.3,1.2,0.8,1.2,1.4c0,0.9-0.7,1.5-1.8,1.5c-0.5,0-1-0.1-1.3-0.3L101.1,227.6z
			"/>
		<path style="fill:#FFFFFF;" d="M106.3,222.7v1.2h1.1v0.9h-1.1v2.2c0,0.6,0.2,0.8,0.6,0.8c0.2,0,0.3,0,0.4,0l0,0.9
			c-0.2,0.1-0.5,0.1-0.8,0.1c-0.4,0-0.8-0.1-1-0.4c-0.3-0.3-0.4-0.7-0.4-1.3v-2.3h-0.6l0-0.9l0.6,0l0-0.9L106.3,222.7z"/>
		<path style="fill:#FFFFFF;" d="M112.2,226.2c0,1.8-1.2,2.5-2.2,2.5c-1.2,0-2.2-0.9-2.2-2.4c0-1.6,1-2.5,2.2-2.5
			C111.4,223.8,112.2,224.8,112.2,226.2z M109,226.3c0,0.9,0.4,1.6,1,1.6c0.6,0,1-0.7,1-1.6c0-0.7-0.3-1.6-1-1.6
			C109.3,224.7,109,225.5,109,226.3z"/>
		<path style="fill:#FFFFFF;" d="M113.2,225.4c0-0.6,0-1.1,0-1.5h1l0,0.9h0c0.2-0.6,0.7-0.9,1.2-0.9c0.1,0,0.2,0,0.3,0v1.1
			c-0.1,0-0.2,0-0.3,0c-0.5,0-0.9,0.3-1,0.9c0,0.1,0,0.2,0,0.4v2.5h-1.2L113.2,225.4z"/>
		<path style="fill:#FFFFFF;" d="M116.4,225.3c0-0.5,0-1,0-1.4l1,0l0,0.7h0c0.2-0.4,0.6-0.8,1.4-0.8c0.6,0,1,0.3,1.2,0.8h0
			c0.2-0.2,0.3-0.4,0.5-0.6c0.3-0.2,0.5-0.3,0.9-0.3c0.8,0,1.5,0.5,1.5,2v2.9h-1.1l0-2.7c0-0.7-0.2-1.2-0.8-1.2
			c-0.4,0-0.6,0.3-0.8,0.6c0,0.1,0,0.3,0,0.4l0,2.9h-1.1v-2.8c0-0.6-0.2-1.1-0.7-1.1c-0.4,0-0.7,0.3-0.8,0.7c0,0.1,0,0.3,0,0.4
			l0,2.9l-1.1,0V225.3z"/>
		<path style="fill:#FFFFFF;" d="M124,228c0-0.5,0.3-0.8,0.7-0.8c0.4,0,0.7,0.3,0.7,0.8c0,0.4-0.3,0.8-0.7,0.8
			C124.3,228.8,124,228.4,124,228z"/>
		<path style="fill:#FFFFFF;" d="M127.6,222.6c0,0.4-0.3,0.6-0.7,0.6c-0.4,0-0.6-0.3-0.6-0.6c0-0.4,0.3-0.6,0.6-0.6
			C127.4,221.9,127.6,222.2,127.6,222.6z M126.4,228.7l0-4.8h1.2l0,4.8H126.4z"/>
		<path style="fill:#FFFFFF;" d="M132.9,226.2c0,1.8-1.2,2.5-2.2,2.5c-1.2,0-2.2-0.9-2.2-2.4c0-1.6,1-2.5,2.2-2.5
			C132,223.8,132.9,224.8,132.9,226.2z M129.7,226.3c0,0.9,0.4,1.6,1,1.6c0.6,0,1-0.7,1-1.6c0-0.7-0.3-1.6-1-1.6
			C130,224.7,129.7,225.5,129.7,226.3z"/>
	</g>
	<path style="fill:#9F5D28;" d="M119.8,77C119.8,77,119.8,77,119.8,77C119.8,77,119.8,77,119.8,77z"/>
	<path style="fill:#825631;" d="M137.7,45.6c-1.5-0.5-4-1.2-4.7-1.4c1.2,1.2,3.1,3.7,2.2,7.3c-0.6,1.6-2.5,4.5-7.9,8.8
		c-4.4,3-12.2,9.7-7.5,16.8c0,0,0-0.7,0.1-1.8c-0.1,0.6-0.1,1.1-0.1,1.8c0-0.7,0.5-8.3,12.2-13.4c0.1,0,10.2-4.3,10.9-9.5
		C143.8,50,139.5,46.7,137.7,45.6z"/>
	<path style="fill:#825631;" d="M75.4,46.5c1.5-0.5,4-1.2,4.7-1.4c-1.2,1.2-3.1,2.8-2.2,6.4c0.6,1.6,2.5,4.5,7.9,8.8
		c4.4,3,12.2,9.7,7.5,16.8c0,0,0-0.7-0.1-1.8c0.1,0.6,0.1,1.1,0.1,1.8c0-0.7-0.5-8.3-12.2-13.4c-0.1,0-10.2-4.3-10.9-9.5
		C69.3,50,73.6,47.6,75.4,46.5z"/>
	<path style="fill:#AA5528;" d="M74.2,209.4"/>
	<path style="fill:#835731;" d="M18.5,101.8c0,0-1.9,3.1-2.5,4.2c-0.4,0.7-2.1,4.1-2.1,4.1s1.3,2,2.7,4.4s4.6,6.8,4.6,6.8
		s3.6,0.1,12.4-1.7c8.5-1.7,18.8-6,18.8-6C32.5,109.4,18.5,101.8,18.5,101.8z"/>
	<path style="fill:#835731;" d="M193.8,101.8c0,0,1.9,3.1,2.5,4.2c0.4,0.7,2.1,3.9,2.1,3.9s-0.8,1.6-2.7,4.6
		c-1.5,2.3-4.6,6.8-4.6,6.8s-3.6,0.1-12.4-1.7c-8.5-1.7-18.8-6-18.8-6C179.8,109.4,193.8,101.8,193.8,101.8z"/>
	<rect x="58" y="84.4" style="fill:#FFF4D9;" width="4.2" height="4.2"/>
	<rect x="136.9" y="84.8" style="fill:#FFF4D9;" width="4.2" height="4.2"/>
	<g>
		<path style="fill:#D59E63;" d="M93.4,119l-1.3-0.9c0,0,2.1,5.4,5.3,7.4c3.9,2.4,9.2,4.1,9.2,4.1s8.4-3.7,10.8-5.8
			c3.3-2.8,3.3-5.7,3.3-5.7l-6.6,1.2l-5.2,3.2l-7.5-1.6L93.4,119z"/>
	</g>
	<g>
		<path style="fill:#835731;" d="M94.4,135.9c8.2-0.5,11.4-4.4,11.4-4.4l0.8,1.6c-2,1.2-11,8.1-20.7,2.4c-3.9-2.3-5.1-7.2-5.1-7.2
			S84.2,136.5,94.4,135.9z"/>
	</g>
	<g>
		<path style="fill:#835731;" d="M118.9,135.9c-8.2-0.5-11.4-4.4-11.4-4.4l-0.8,1.6c2,1.2,11,8.1,20.7,2.4c3.9-2.3,5.1-7.2,5.1-7.2
			S129.1,136.5,118.9,135.9z"/>
	</g>
	<path d="M95.5,118.1l-3.4,0c0,0,1,2.4,2.8,4.4c1.8,2.1,4,2.4,4,2.4S94,120.3,95.5,118.1z"/>
	<path d="M117.4,118.1l3.4,0c0,0-0.1,2.5-2.5,4.5c-2.1,1.7-3.9,2.3-3.9,2.3S120.8,119.6,117.4,118.1z"/>
	<path style="fill:#835731;" d="M107.5,133.6l-0.9-0.5l-1.1,0.7c0,0-0.9-1-0.6-1.2c0.9-0.6,1.1-1.6,1.1-2.8c0-1.7-0.4-3-0.4-3h2
		c0,0-0.3,1.5-0.3,3c0,0.9,0.3,2.1,1,2.5C108.6,132.5,107.5,133.6,107.5,133.6z"/>
	<path style="fill:#483729;" d="M92.1,118.1c0,0,3.1-1.5,5.1-1.2c2,0.3,5.6,2.6,9.3,2.6s6-2.7,9.1-2.7c3.1,0,5,1.3,5,1.3
		s-9.6,8.9-13.9,8.9C103.9,126.9,99.6,124.4,92.1,118.1z"/>
</g>
</svg>
