<?xml version="1.0" encoding="utf-8"?>
<!-- Generator: Adobe Illustrator 18.1.1, SVG Export Plug-In . SVG Version: 6.00 Build 0)  -->
<!DOCTYPE svg PUBLIC "-//W3C//DTD SVG 1.1//EN" "http://www.w3.org/Graphics/SVG/1.1/DTD/svg11.dtd">
<svg version="1.1" id="Layer_1" xmlns="http://www.w3.org/2000/svg" xmlns:xlink="http://www.w3.org/1999/xlink" x="0px" y="0px"
	 viewBox="0 0 40 40" style="enable-background:new 0 0 40 40;" xml:space="preserve">
<g>
	<path style="fill:#DDC9E8;" d="M20.4,28c-3.9,0-6.9-2.9-7.2-6.7C13,17.4,16,14,19.8,13.7c0.1,0,0.3,0,0.4,0c0,0,0,0,0,0
		c3.8,0,7,2.9,7.2,6.8C27.7,24.4,24.6,27.7,20.4,28L20.4,28 M15.2,3.6c-0.1,0-0.2,0-0.3,0.1C14,4,13.1,4.4,12.2,4.7
		c-0.3,0.1-0.4,0.2-0.4,0.6c0.1,0.7,0.1,1.3,0.1,2c0,0.7,0.1,1.3,0.1,2c0,0.3-0.1,0.5-0.3,0.6c-0.9,0.7-1.8,1.6-2.5,2.5
		c-0.2,0.2-0.3,0.3-0.6,0.3l-0.1,0c-1.2-0.1-2.5-0.2-3.7-0.2l-0.1,0c-0.2,0-0.4,0.1-0.5,0.4c-0.3,0.9-0.7,1.8-1.1,2.7
		c-0.1,0.3,0,0.5,0.2,0.7c1,0.8,1.9,1.6,2.8,2.4c0.3,0.2,0.4,0.4,0.3,0.8c-0.1,1.1-0.1,2.2,0,3.3c0,0.3,0,0.5-0.3,0.7
		c-0.9,0.7-1.8,1.5-2.7,2.2c-0.3,0.2-0.3,0.4-0.2,0.7c0.4,0.9,0.7,1.8,1.1,2.7c0.1,0.2,0.2,0.3,0.5,0.3l0.1,0
		c1.2-0.1,2.4-0.2,3.6-0.2l0.1,0c0.3,0,0.4,0.1,0.6,0.3c0.7,1,1.6,1.8,2.6,2.5c0.3,0.2,0.4,0.4,0.3,0.7c-0.1,1.2-0.2,2.5-0.3,3.7
		c0,0.3,0.1,0.5,0.4,0.6c0.9,0.3,1.7,0.7,2.6,1.1c0.1,0.1,0.3,0.1,0.4,0.1c0.2,0,0.3-0.1,0.5-0.3c0.8-1,1.6-1.9,2.4-2.8
		c0.2-0.2,0.3-0.3,0.6-0.3l0.1,0c0.5,0,1,0.1,1.5,0.1c0.6,0,1.1,0,1.6-0.1l0.2,0c0.2,0,0.4,0.1,0.6,0.3c0.8,0.9,1.6,1.8,2.3,2.7
		c0.1,0.2,0.3,0.3,0.4,0.3c0.1,0,0.2,0,0.3-0.1c0.9-0.4,1.8-0.7,2.6-1.1c0.3-0.1,0.5-0.3,0.4-0.7c-0.1-1.2-0.2-2.4-0.3-3.6
		c0-0.3,0-0.5,0.3-0.7c0.9-0.7,1.7-1.5,2.4-2.4c0.2-0.2,0.3-0.3,0.6-0.3l0.1,0c1.3,0.1,2.5,0.1,3.8,0.2l0.1,0c0.3,0,0.4-0.1,0.5-0.4
		c0.3-0.9,0.7-1.8,1.1-2.6c0.1-0.3,0.1-0.5-0.2-0.7c-1-0.8-1.9-1.6-2.9-2.4c-0.2-0.2-0.3-0.3-0.3-0.6c0.1-1,0.2-2,0-3
		c0-0.4,0.1-0.6,0.3-0.8c1-0.8,2-1.7,3-2.5c0.3-0.2,0.3-0.4,0.2-0.8c-0.4-0.8-0.7-1.7-1-2.5c-0.1-0.3-0.3-0.5-0.6-0.5l-0.1,0
		c-1.3,0.1-2.6,0.2-3.9,0.3l-0.1,0c-0.2,0-0.4-0.1-0.5-0.3c-0.6-0.9-1.4-1.7-2.3-2.4c-0.3-0.2-0.3-0.4-0.3-0.7
		c0.1-1.3,0.2-2.6,0.3-3.9c0-0.3-0.1-0.5-0.4-0.6c-0.9-0.3-1.8-0.7-2.6-1.1c-0.1,0-0.2-0.1-0.3-0.1c0,0,0,0,0,0
		c-0.2,0-0.3,0.1-0.4,0.3c-0.8,1-1.6,1.9-2.4,2.9c-0.1,0.2-0.2,0.3-0.5,0.3l-0.1,0C21.7,7,21,7,20.4,7c-0.5,0-1.1,0-1.6,0.1l-0.1,0
		c-0.2,0-0.4-0.1-0.6-0.3c-0.8-1-1.7-2-2.5-3C15.4,3.6,15.3,3.6,15.2,3.6"/>
</g>
</svg>
