<?xml version="1.0" encoding="utf-8"?>
<!-- Generator: Adobe Illustrator 18.1.1, SVG Export Plug-In . SVG Version: 6.00 Build 0)  -->
<!DOCTYPE svg PUBLIC "-//W3C//DTD SVG 1.1//EN" "http://www.w3.org/Graphics/SVG/1.1/DTD/svg11.dtd">
<svg version="1.1" id="Layer_1" xmlns="http://www.w3.org/2000/svg" xmlns:xlink="http://www.w3.org/1999/xlink" x="0px" y="0px"
	 viewBox="0 0 16 16" style="enable-background:new 0 0 16 16;" xml:space="preserve">
<g style="opacity:0.4;">
	<path style="fill:#783189;" d="M1.6,12.5c-0.1,0.1-0.1,0.2,0,0.3l1.1,1.4c0.1,0.1,0.2,0.1,0.3,0l7.8-6L9.4,6.4L1.6,12.5z"/>
	<path style="fill:#783189;" d="M14.3,5.1l-1.1-1.4c-0.1-0.1-0.2-0.1-0.3,0L10,6l1.4,1.7l2.9-2.3C14.4,5.4,14.4,5.2,14.3,5.1z"/>
</g>
<path style="opacity:0.4;fill:none;stroke:#783189;stroke-width:0.5;stroke-miterlimit:10;" d="M5.9,1l0.7,1.2c0,0,0.1,0.1,0.1,0.1
	l1.4,0.1c0.1,0,0.2,0.2,0.1,0.3l-1,1c0,0-0.1,0.1,0,0.1l0.3,1.4c0,0.1-0.1,0.2-0.2,0.2L6,4.9c0,0-0.1,0-0.1,0L4.6,5.6
	c-0.1,0.1-0.3,0-0.2-0.2L4.6,4c0-0.1,0-0.1-0.1-0.1L3.5,3C3.4,2.9,3.4,2.7,3.5,2.7l1.4-0.3c0.1,0,0.1,0,0.1-0.1L5.6,1
	C5.7,0.9,5.8,0.9,5.9,1z"/>
<path style="opacity:0.4;fill:#783189;" d="M14.1,7.8l0.3,0.6c0,0,0,0,0.1,0l0.6,0.1c0.1,0,0.1,0.1,0,0.1l-0.4,0.5c0,0,0,0,0,0.1
	l0.1,0.6c0,0.1,0,0.1-0.1,0.1l-0.6-0.3c0,0,0,0-0.1,0l-0.6,0.3c-0.1,0-0.1,0-0.1-0.1l0.1-0.6c0,0,0,0,0-0.1L13,8.7c0,0,0-0.1,0-0.1
	l0.6-0.1c0,0,0,0,0.1,0L14,7.8C14,7.8,14.1,7.8,14.1,7.8z"/>
</svg>
