<?xml version="1.0" encoding="utf-8"?>
<!-- Generator: Adobe Illustrator 18.1.1, SVG Export Plug-In . SVG Version: 6.00 Build 0)  -->
<!DOCTYPE svg PUBLIC "-//W3C//DTD SVG 1.1//EN" "http://www.w3.org/Graphics/SVG/1.1/DTD/svg11.dtd">
<svg version="1.1" id="Layer_1" xmlns="http://www.w3.org/2000/svg" xmlns:xlink="http://www.w3.org/1999/xlink" x="0px" y="0px"
	 viewBox="0 0 18 19" style="enable-background:new 0 0 18 19;" xml:space="preserve">
<path id="Facebook_2_" style="fill:#783189;" d="M6.8,5.3c0,0.4,0,1.9,0,1.9H5.4v2.4h1.4v7h2.9v-7h1.9c0,0,0.2-1.1,0.3-2.4
	c-0.3,0-2.2,0-2.2,0s0-1.4,0-1.6c0-0.2,0.3-0.6,0.6-0.6c0.3,0,1,0,1.6,0c0-0.3,0-1.4,0-2.5c-0.8,0-1.7,0-2.1,0
	C6.8,2.6,6.8,5,6.8,5.3z"/>
</svg>
