<?xml version="1.0" encoding="utf-8"?>
<!-- Generator: Adobe Illustrator 18.1.1, SVG Export Plug-In . SVG Version: 6.00 Build 0)  -->
<!DOCTYPE svg PUBLIC "-//W3C//DTD SVG 1.1//EN" "http://www.w3.org/Graphics/SVG/1.1/DTD/svg11.dtd">
<svg version="1.1" id="Layer_1" xmlns="http://www.w3.org/2000/svg" xmlns:xlink="http://www.w3.org/1999/xlink" x="0px" y="0px"
	 viewBox="0 0 32.3 36" style="enable-background:new 0 0 32.3 36;" xml:space="preserve">
<g>
	<path style="fill:none;" d="M18.3,4c0,0-2.3,0-2.3,0h-2.3c-1,0-1,1.2-1,1.9c0,0.2,0,0.1,0,0.1h6.8c0,0-0.1-0.7-0.2-1.2
		C19.2,4.3,18.9,4,18.3,4z"/>
	<path style="fill:#A4A3B3;" d="M30,6h-8.5l-0.2-2.6c0-0.9-0.8-1.4-1.7-1.4H16h-3.5c-0.9,0-1.7,0.5-1.7,1.4L10.6,6H2v1h2.6
		c0.2,4,1.9,23.4,1.9,23.4c0,1.6,1.4,2.6,3.1,2.6h6.5h6.5c1.7,0,3.1-1,3.1-2.6l2-23.4H30V6z M12,28h-1.5l-0.4-17H12V28z M17,28h-2
		V11h2V28z M12.6,6C12.7,6,12.7,6.1,12.6,6c0.1-0.8,0.1-2,1.1-2H16c0,0,2.3,0,2.3,0c0.6,0,0.8,0.3,0.9,0.8C19.4,5.3,19.4,6,19.5,6
		H12.6z M21.7,28H20V11h2L21.7,28z"/>
</g>
</svg>
