<?xml version="1.0" encoding="utf-8"?>
<!-- Generator: Adobe Illustrator 18.1.1, SVG Export Plug-In . SVG Version: 6.00 Build 0)  -->
<!DOCTYPE svg PUBLIC "-//W3C//DTD SVG 1.1//EN" "http://www.w3.org/Graphics/SVG/1.1/DTD/svg11.dtd">
<svg version="1.1" id="Layer_1" xmlns="http://www.w3.org/2000/svg" xmlns:xlink="http://www.w3.org/1999/xlink" x="0px" y="0px"
	 viewBox="0 0 18 19" style="enable-background:new 0 0 18 19;" xml:space="preserve">
<g>
	<path style="fill:#783189;" d="M15.3,7.1c0-1.1-0.4-2-1-2.7c0.1-0.2,0.4-1.3-0.1-2.6c0,0-0.8-0.3-2.7,1C10.7,2.6,9.9,2.5,9,2.5
		c-0.8,0-1.7,0.1-2.5,0.3c-1.9-1.3-2.7-1-2.7-1C3.3,3.1,3.6,4.1,3.7,4.4c-0.6,0.7-1,1.6-1,2.7c0,3.5,1.9,4.5,3.9,4.8
		c0.1,0,0.2,0,0.3,0c-0.2,0.2-0.3,0.5-0.3,0.9C6.1,13,4.8,13.4,4,12.1c0,0-0.5-0.8-1.3-0.9c0,0-0.9,0-0.1,0.5c0,0,0.6,0.3,1,1.3
		c0,0,0.5,1.6,2.6,1.2c0.1,0,0.2,0,0.3-0.1c0,0,0,0,0,0c0,0.7,0,1.3,0,1.5c0,0.1,0,0.7-0.1,1.2c0,0,0,0,0,0
		c-0.2,0.2-0.5,0.3-0.6,0.4c-0.1,0.1,0,0.3,0.1,0.3c0,0,0.1,0,0.2,0c0.2,0,0.5,0,0.8-0.2c0.5-0.2,0.7-0.6,0.7-1c0-0.4,0-2.4,0-2.4
		s0-0.4,0.1-0.6c0.1-0.2,0.1-0.3,0.2-0.3c0,0,0,0,0,0v4.2c0,0,0,0.2-0.1,0.4c0,0.1-0.1,0.1-0.2,0.2c-0.1,0.1-0.2,0.2-0.2,0.2
		c0,0.2,0.1,0.3,0.4,0.2c0.3,0,0.6-0.2,0.8-0.4c0,0,0.1-0.1,0.1-0.1c0.2-0.3,0.2-0.5,0.2-0.8c0-0.1,0-4.1,0-4.1s0-0.2,0.2-0.2
		c0.1,0,0.2,0.2,0.2,0.2s0,4,0,4.2c0,0.1,0,0.4,0.2,0.7c0,0,0,0,0.1,0.1c0.2,0.3,0.6,0.4,0.8,0.5c0.3,0,0.4-0.1,0.4-0.2
		c0-0.2-0.2-0.2-0.3-0.4c0,0-0.1-0.1-0.1-0.1c-0.1-0.1-0.1-0.4-0.1-0.4v-4.1c0,0,0,0,0,0c0,0,0.1,0.1,0.2,0.3
		c0.1,0.3,0.1,0.6,0.1,0.6s0,1.9,0,2.4c0,0.3,0.1,0.6,0.4,0.9c0.1,0.1,0.2,0.1,0.3,0.2c0.5,0.2,0.9,0.2,1,0.1c0.1,0,0.2-0.2,0.1-0.3
		c-0.1-0.1-0.3-0.2-0.6-0.5c-0.2-0.2-0.2-0.6-0.2-0.6s0-2.5,0-2.8c0-0.4-0.2-1-0.2-1s-0.2-0.3-0.3-0.5c0,0-0.1-0.1-0.1-0.1
		C13.3,11.6,15.3,10.6,15.3,7.1z"/>
</g>
</svg>
