<?xml version="1.0" encoding="utf-8"?>
<!-- Generator: Adobe Illustrator 18.1.1, SVG Export Plug-In . SVG Version: 6.00 Build 0)  -->
<!DOCTYPE svg PUBLIC "-//W3C//DTD SVG 1.1//EN" "http://www.w3.org/Graphics/SVG/1.1/DTD/svg11.dtd">
<svg version="1.1" id="Layer_1" xmlns="http://www.w3.org/2000/svg" xmlns:xlink="http://www.w3.org/1999/xlink" x="0px" y="0px"
	 viewBox="0 0 18 19" style="enable-background:new 0 0 18 19;" xml:space="preserve">
<g>
	<path id="Google_2_" style="fill:#783189;" d="M12.5,2.9h-4C7.4,2.9,6,3.1,4.9,4C4.1,4.7,3.7,5.7,3.7,6.6c0,1.5,1.2,3.1,3.3,3.1
		c0.2,0,0.4,0,0.6,0c-0.1,0.2-0.2,0.4-0.2,0.8c0,0.6,0.3,1,0.6,1.3c-0.9,0.1-2.5,0.2-3.7,0.9C3,13.3,2.7,14.3,2.7,15
		c0,1.4,1.4,2.8,4.2,2.8c3.4,0,5.2-1.9,5.2-3.7c0-1.3-0.8-2-1.6-2.7l-0.7-0.5c-0.2-0.2-0.5-0.4-0.5-0.8c0-0.4,0.3-0.7,0.5-1
		c0.8-0.6,1.6-1.3,1.6-2.8c0-1.5-0.9-2.3-1.4-2.6h1.2L12.5,2.9z M10.7,14.9c0,1.2-1.3,2-3.2,2c-2.1,0-3.2-0.9-3.2-2.3
		c0-1.4,1.3-1.9,1.7-2c0.8-0.3,1.9-0.3,2.1-0.3c0.2,0,0.3,0,0.5,0C10.1,13.4,10.7,13.9,10.7,14.9z M9.2,8.6C8.8,8.9,8.3,9.1,7.8,9.1
		C6.1,9.1,5.4,7,5.4,5.6c0-0.5,0.1-1,0.4-1.4c0.3-0.4,0.9-0.6,1.4-0.6c1.6,0,2.5,2.2,2.5,3.6C9.7,7.5,9.6,8.1,9.2,8.6z"/>
	<rect x="14.7" y="7.8" style="fill:#783189;" width="0.9" height="4.3"/>
	<rect x="13.1" y="9.5" style="fill:#783189;" width="4.3" height="0.9"/>
</g>
</svg>
