<?xml version="1.0" encoding="utf-8"?>
<!-- Generator: Adobe Illustrator 18.1.1, SVG Export Plug-In . SVG Version: 6.00 Build 0)  -->
<!DOCTYPE svg PUBLIC "-//W3C//DTD SVG 1.1//EN" "http://www.w3.org/Graphics/SVG/1.1/DTD/svg11.dtd">
<svg version="1.1" xmlns="http://www.w3.org/2000/svg" xmlns:xlink="http://www.w3.org/1999/xlink" x="0px" y="0px"
	 viewBox="0 0 186.1 55.1" style="enable-background:new 0 0 186.1 55.1;" xml:space="preserve">
<g id="Layer_2">
</g>
<g id="Layer_1">
	<g>
		<path style="fill:#FFFFFF;" d="M60.3,36.9c1,1,2.3,1.7,3.8,1.7c1.8,0,2.9-0.9,2.9-2.2c0-1.4-1-1.8-2.3-2.4l-2-0.9
			c-1.3-0.5-2.8-1.5-2.8-3.5c0-2.1,1.8-3.6,4.3-3.6c1.6,0,3.1,0.7,4,1.7l-0.9,1.1c-0.8-0.8-1.9-1.3-3.1-1.3c-1.5,0-2.6,0.8-2.6,2
			c0,1.3,1.2,1.8,2.3,2.3l2,0.8c1.6,0.7,2.8,1.6,2.8,3.6c0,2.2-1.8,3.9-4.7,3.9c-1.9,0-3.6-0.8-4.8-2L60.3,36.9z"/>
		<path style="fill:#FFFFFF;" d="M76.8,33.5c0-1.3-0.4-2.5-2.1-2.5c-1.2,0-2.2,0.5-3,1.1L71,30.8c0.9-0.6,2.4-1.3,4-1.3
			c2.5,0,3.5,1.6,3.5,4.2v6.2h-1.4L77,38.7h0c-1,0.8-2.1,1.5-3.4,1.5c-1.7,0-3-1.1-3-2.9C70.6,35.1,72.5,34,76.8,33.5z M74.1,38.8
			c1,0,1.8-0.5,2.8-1.4v-2.8c-3.4,0.4-4.5,1.2-4.5,2.5C72.3,38.3,73.1,38.8,74.1,38.8z"/>
		<path style="fill:#FFFFFF;" d="M81.8,29.8h1.4l0.1,1.5h0.1c1-1,2-1.7,3.4-1.7c2.1,0,3.1,1.4,3.1,4v6.4h-1.7v-6.2
			c0-1.9-0.6-2.7-1.9-2.7c-1,0-1.7,0.5-2.8,1.6v7.3h-1.7V29.8z"/>
		<path style="fill:#FFFFFF;" d="M96.8,29.5c1.2,0,1.9,0.4,2.8,1.2L99.6,29v-3.9h1.7v14.8h-1.4l-0.1-1.2h-0.1
			c-0.8,0.8-1.9,1.4-3.1,1.4c-2.5,0-4.2-1.9-4.2-5.3C92.4,31.6,94.5,29.5,96.8,29.5z M97,38.7c0.9,0,1.7-0.5,2.6-1.4V32
			c-0.9-0.8-1.6-1.1-2.5-1.1c-1.6,0-2.9,1.6-2.9,3.9C94.2,37.2,95.2,38.7,97,38.7z"/>
		<path style="fill:#FFFFFF;" d="M104.4,37.6c0.9,0.7,1.8,1.2,3,1.2c1.3,0,2-0.7,2-1.6c0-1-1.2-1.5-2.3-1.9c-1.4-0.5-3-1.2-3-2.9
			c0-1.6,1.3-2.9,3.5-2.9c1.3,0,2.4,0.5,3.1,1.1l-0.8,1.1c-0.7-0.5-1.4-0.9-2.3-0.9c-1.3,0-1.9,0.7-1.9,1.5c0,0.9,1.1,1.3,2.2,1.7
			c1.5,0.5,3.1,1.1,3.1,3.1c0,1.6-1.3,3-3.7,3c-1.4,0-2.8-0.6-3.8-1.4L104.4,37.6z"/>
		<path style="fill:#FFFFFF;" d="M113.7,31.2h-1.5v-1.3l1.6-0.1l0.2-2.8h1.4v2.8h2.7v1.4h-2.7v5.6c0,1.2,0.4,2,1.6,2
			c0.4,0,0.8-0.1,1.1-0.3l0.3,1.3c-0.6,0.2-1.2,0.4-1.9,0.4c-2.2,0-2.9-1.4-2.9-3.4V31.2z"/>
		<path style="fill:#FFFFFF;" d="M124.2,29.5c2.5,0,4.7,1.9,4.7,5.3c0,3.4-2.2,5.3-4.7,5.3c-2.5,0-4.7-1.9-4.7-5.3
			C119.5,31.5,121.7,29.5,124.2,29.5z M124.2,38.7c1.7,0,2.9-1.6,2.9-3.9c0-2.3-1.2-3.9-2.9-3.9c-1.7,0-2.9,1.6-2.9,3.9
			C121.3,37.2,122.5,38.7,124.2,38.7z"/>
		<path style="fill:#FFFFFF;" d="M131.5,29.8h1.4l0.1,1.8h0.1c0.7-1.3,1.7-2.1,2.9-2.1c0.4,0,0.7,0.1,1.1,0.2l-0.3,1.5
			c-0.3-0.1-0.6-0.2-1-0.2c-0.9,0-1.9,0.6-2.6,2.3v6.5h-1.7V29.8z"/>
		<path style="fill:#FFFFFF;" d="M138.8,29.8h1.4l0.1,1.5h0.1c0.9-1,1.9-1.7,3.1-1.7c1.5,0,2.4,0.7,2.8,1.9c1.1-1.1,2.1-1.9,3.3-1.9
			c2.1,0,3.1,1.4,3.1,4v6.4H151v-6.2c0-1.9-0.6-2.7-1.9-2.7c-0.8,0-1.6,0.5-2.5,1.6v7.3h-1.7v-6.2c0-1.9-0.6-2.7-1.9-2.7
			c-0.7,0-1.6,0.5-2.5,1.6v7.3h-1.7V29.8z"/>
		<path style="fill:#FFFFFF;" d="M156.9,37.5c0.7,0,1.2,0.5,1.2,1.3c0,0.7-0.6,1.3-1.2,1.3c-0.7,0-1.2-0.5-1.2-1.3
			C155.7,38.1,156.2,37.5,156.9,37.5z"/>
		<path style="fill:#FFFFFF;" d="M160.9,26.6c0-0.7,0.5-1.1,1.2-1.1s1.2,0.4,1.2,1.1c0,0.6-0.5,1.1-1.2,1.1S160.9,27.2,160.9,26.6z
			 M161.2,29.8h1.7v10.1h-1.7V29.8z"/>
		<path style="fill:#FFFFFF;" d="M170.3,29.5c2.5,0,4.7,1.9,4.7,5.3c0,3.4-2.2,5.3-4.7,5.3c-2.5,0-4.7-1.9-4.7-5.3
			C165.6,31.5,167.8,29.5,170.3,29.5z M170.3,38.7c1.7,0,2.9-1.6,2.9-3.9c0-2.3-1.2-3.9-2.9-3.9c-1.7,0-2.9,1.6-2.9,3.9
			C167.4,37.2,168.5,38.7,170.3,38.7z"/>
	</g>
	<g>
		<path style="fill:#FFFFFF;" d="M32.1,32.9h-5.7v-5.7h-5.7v-5.7c0,0-5.3,0-5.3,0c0,7.4,0,14.9,0,22.3c7.4,0,14.9,0,22.3,0
			c0,0,0-5.3,0-5.3h-5.7V32.9z"/>
		<rect x="43.1" y="22.8" style="fill:#FFFFFF;" width="1.3" height="1.8"/>
		<rect x="46.6" y="8.4" style="fill:#FFFFFF;" width="1.3" height="1.3"/>
		<rect x="43.5" y="18.9" style="fill:#FFFFFF;" width="1.3" height="1.3"/>
		<rect x="48.3" y="15.8" style="fill:#FFFFFF;" width="1.3" height="1.3"/>
		<rect x="42.7" y="13.6" style="fill:#FFFFFF;" width="1.3" height="1.8"/>
		<rect x="40.5" y="33.3" style="fill:#FFFFFF;" width="1.3" height="1.3"/>
		<rect x="55.8" y="2.2" style="fill:#FFFFFF;" width="1.3" height="1.8"/>
		<rect x="32.6" y="12.3" style="fill:#FFFFFF;" width="1.3" height="1.8"/>
		<rect x="41.3" y="17.1" style="fill:#FFFFFF;" width="1.3" height="1.3"/>
		<rect x="47.5" y="26.3" style="fill:#FFFFFF;" width="1.8" height="1.3"/>
		<rect x="33.9" y="18.9" style="fill:#FFFFFF;" width="1.3" height="1.3"/>
		<polygon style="fill:#FFFFFF;" points="35.2,22 33.9,22 33.9,20.2 32.1,20.2 32.1,18.9 31,18.9 30,18.9 30,20.4 30,21.8 30,21.8 
			30,23.3 30.8,23.3 30.8,25 32.4,25 33.8,25 35.2,25 35.2,23.2 		"/>
		<polygon style="fill:#FFFFFF;" points="38.7,22.8 40,22.8 41.3,22.8 41.3,21.3 41.3,19.8 40,19.8 40,18.4 38.6,18.4 37,18.4 
			37,19.9 37,21.1 38.7,21.1 		"/>
		<rect x="39.6" y="24.6" style="fill:#FFFFFF;" width="1.3" height="1.3"/>
		<polygon style="fill:#FFFFFF;" points="40.9,28.8 40.9,27.2 39.1,27.2 39.1,25.9 37.8,25.9 37.8,25 36.7,25 36.6,25 35.2,25 
			35.2,26.1 35.2,27.4 35.2,27.5 35.2,28.5 36.5,28.5 36.5,30.3 38.1,30.3 39.5,30.3 40.9,30.3 		"/>
		<polygon style="fill:#FFFFFF;" points="27.8,23 27.8,21.5 26.9,21.5 26.9,20.2 25.2,20.2 23.9,20.2 22.5,20.2 22.5,21.6 22.5,23 
			22.5,23 22.5,24.4 22.5,25.9 23.8,25.9 25.2,25.9 26.6,25.9 27.8,25.9 27.8,24.4 		"/>
		<polygon style="fill:#FFFFFF;" points="33.9,28.6 33.9,27.2 32.1,27.2 32.1,25.9 30.9,25.9 29.5,25.9 27.8,25.9 27.8,27.2 
			27.8,28.6 27.8,28.7 27.8,30 27.8,31.6 29.5,31.6 30.9,31.6 32.3,31.6 33.9,31.6 33.9,30 		"/>
		<polygon style="fill:#FFFFFF;" points="37.8,31.6 36.5,31.6 35.1,31.6 33.9,31.6 33.9,32.9 33.9,34.3 33.9,34.3 33.9,35.7 
			33.9,37.3 35.1,37.3 36.5,37.3 37.9,37.3 39.1,37.3 39.1,35.6 39.1,34.3 39.1,34.3 39.1,32.9 37.8,32.9 		"/>
		<rect x="48.3" y="10.1" style="fill:#FFFFFF;" width="1.3" height="1.3"/>
	</g>
</g>
</svg>
