<?xml version="1.0" encoding="utf-8"?>
<!-- Generator: Adobe Illustrator 18.1.1, SVG Export Plug-In . SVG Version: 6.00 Build 0)  -->
<!DOCTYPE svg PUBLIC "-//W3C//DTD SVG 1.1//EN" "http://www.w3.org/Graphics/SVG/1.1/DTD/svg11.dtd">
<svg version="1.1" id="Layer_1" xmlns="http://www.w3.org/2000/svg" xmlns:xlink="http://www.w3.org/1999/xlink" x="0px" y="0px"
	 viewBox="0 0 40 40" style="enable-background:new 0 0 40 40;" xml:space="preserve">
<g>
	<path style="fill:#BA84C8;" d="M10.5,15.8c0,0.8,2,1.6,4.4,1.6c2.4,0,4.1-0.7,4.4-1.5c0.1-0.2,0.1-0.8,0.1-0.8l0-8.4h-7.8
		c0,0,0,0.1,0,0.2c0,0.2-0.1,0.4-0.1,0.6c0,0.3-0.1,0.6-0.1,0.9c0,0.4-0.1,0.8-0.1,1.1c-0.1,0.4-0.1,0.8-0.2,1.3
		c-0.1,0.4-0.1,0.8-0.2,1.3c0,0.4-0.1,0.8-0.1,1.2c0,0.3-0.1,0.7-0.1,1c0,0.3-0.1,0.5-0.1,0.8C10.5,15.3,10.5,15.6,10.5,15.8z"/>
	<path style="fill:#BA84C8;" d="M9.7,15.8c0,0,1-9.2,1-9.2H5.3l-3.6,9.1c0,0,0,0,0,0c0,0.8,1.7,1.4,3.9,1.4S9.6,16.6,9.7,15.8z"/>
	<path style="fill:#BA84C8;" d="M29.8,15.9C29.7,15.9,29.7,15.9,29.8,15.9c0,0.8,1.8,1.3,4,1.3c0.9,0,4.2-0.2,4-1.8
		c0-0.1-0.1-0.2-0.2-0.3c-0.9-2.2-1.8-4.5-2.7-6.7c-0.1-0.4-0.3-0.7-0.4-1c-0.1-0.3-0.2-0.5-0.3-0.8h-5.4"/>
	<path style="fill:#BA84C8;" d="M20.3,15.8c0,0.8,1.8,1.6,4.2,1.6c2.4,0,4.4-0.8,4.4-1.6c0-0.1,0-0.2,0-0.2l-1-8.9h-7.6
		C20.3,6.7,20.3,15.7,20.3,15.8z"/>
</g>
<g>
	<polygon style="fill:#BA84C8;" points="30.3,18.5 30.3,24.4 9.6,24.4 9.6,18.5 5.5,18.5 5.5,32.2 34.2,32.2 34.2,18.5 	"/>
</g>
</svg>
