<?xml version="1.0" encoding="utf-8"?>
<!-- Generator: Adobe Illustrator 18.1.1, SVG Export Plug-In . SVG Version: 6.00 Build 0)  -->
<!DOCTYPE svg PUBLIC "-//W3C//DTD SVG 1.1//EN" "http://www.w3.org/Graphics/SVG/1.1/DTD/svg11.dtd">
<svg version="1.1" id="Layer_1" xmlns="http://www.w3.org/2000/svg" xmlns:xlink="http://www.w3.org/1999/xlink" x="0px" y="0px"
	 viewBox="0 0 40 40" style="enable-background:new 0 0 40 40;" xml:space="preserve">
<g>
	<path style="fill:#BA84C8;" d="M23.5,26H23c4.7-1,8.2-6.1,8.2-11.5C31.2,8.3,26.6,3,20.8,3c-5.7,0-10.4,5.4-10.4,11.6
		C10.5,20,14,25,18.6,26h-0.5C11.9,26,8,30,8,36.2V37h25v-0.8C33,30,29.7,26,23.5,26z M16.4,18c0-0.4,0.1-0.7,0.2-1
		c0.5,1.3,2.3,2.2,4.4,2.2c2.1,0,3.8-0.9,4.4-2.2c0.1,0.3,0.2,0.7,0.2,1c0,2.1-2,3.8-4.5,3.8C18.5,21.8,16.4,20.1,16.4,18z"/>
</g>
</svg>
