<?xml version="1.0" encoding="utf-8"?>
<!-- Generator: Adobe Illustrator 18.1.1, SVG Export Plug-In . SVG Version: 6.00 Build 0)  -->
<!DOCTYPE svg PUBLIC "-//W3C//DTD SVG 1.1//EN" "http://www.w3.org/Graphics/SVG/1.1/DTD/svg11.dtd">
<svg version="1.1" id="Layer_1" xmlns="http://www.w3.org/2000/svg" xmlns:xlink="http://www.w3.org/1999/xlink" x="0px" y="0px"
	 viewBox="0 0 12 12" style="enable-background:new 0 0 12 12;" xml:space="preserve">
<g>
	<path style="fill:#AA79C6;" d="M9.2,4.3L9.2,4.3c0-1.7-1.4-3.1-3.1-3.1C4.4,1.2,3,2.6,3,4.3l0,0.1h0v5.1h6.2L9.2,4.3L9.2,4.3z
		 M8.1,6.6V9h-4V6.6V4.3c0-1.1,0.9-1.9,2-1.9s2,0.8,2,1.9V6.6z"/>
	<path style="fill:#764E7F;" d="M4.1,6.6V9h4V6.6C7.6,7,6.9,7.3,6.1,7.3C5.4,7.3,4.7,7,4.1,6.6z"/>
	<g>
		<defs>
			<polyline id="SVGID_1_" points="10.8,12 1.1,12 1.1,5.9 10.8,5.9 			"/>
		</defs>
		<clipPath id="SVGID_2_">
			<use xlink:href="#SVGID_1_"  style="overflow:visible;"/>
		</clipPath>
		<path style="clip-path:url(#SVGID_2_);fill:#AA79C6;" d="M9.4,11.6H2.9c-0.6,0-1.1-0.5-1.1-1.1V6.2c0-0.6,0.5-1.1,1.1-1.1h6.5
			c0.6,0,1.1,0.5,1.1,1.1v4.3C10.5,11.1,10,11.6,9.4,11.6z"/>
	</g>
</g>
</svg>
