<?xml version="1.0" encoding="utf-8"?>
<!-- Generator: Adobe Illustrator 18.1.1, SVG Export Plug-In . SVG Version: 6.00 Build 0)  -->
<!DOCTYPE svg PUBLIC "-//W3C//DTD SVG 1.1//EN" "http://www.w3.org/Graphics/SVG/1.1/DTD/svg11.dtd">
<svg version="1.1" id="Layer_1" xmlns="http://www.w3.org/2000/svg" xmlns:xlink="http://www.w3.org/1999/xlink" x="0px" y="0px"
	 viewBox="0 0 16 16" style="enable-background:new 0 0 16 16;" xml:space="preserve">
<polyline style="fill:none;stroke:#A965BA;stroke-width:0.5;stroke-linecap:round;stroke-miterlimit:10;" points="2,3.2 3.9,3.3 
	3.6,5.2 "/>
<polygon style="fill:#A965BA;" points="14.6,7.6 12.3,8.2 12.8,5.8 "/>
<g>
	<g>
		<path style="fill:#A965BA;" d="M12.5,1.4c-0.2-0.2-0.7-0.1-0.9,0.1l-6.7,7l2,1.9l6.7-7c0.2-0.2,0.3-0.6,0.1-0.8L12.5,1.4z"/>
	</g>
</g>
<g>
	<path style="fill:none;stroke:#A965BA;stroke-width:0.5;stroke-linecap:round;stroke-miterlimit:10;" d="M3.7,3.5
		C3.4,3.7,3.2,3.9,2.9,4.1c-2.4,2.3-2.5,6.2-0.2,8.6c2.3,2.4,6.2,2.5,8.6,0.2c1.5-1.5,2.1-3.6,1.8-5.5"/>
	<path style="fill:none;stroke:#A965BA;stroke-width:0.5;stroke-miterlimit:10;" d="M3.7,3.5"/>
	<path style="fill:none;stroke:#A965BA;stroke-width:0.5;stroke-miterlimit:10;" d="M7.3,8.5"/>
</g>
<polyline style="fill:none;stroke:#A965BA;stroke-width:0.5;stroke-linecap:round;stroke-miterlimit:10;" points="2,3.2 3.9,3.3 
	3.6,5.2 "/>
<polygon style="fill:#A965BA;" points="6.6,10.6 4.3,11.2 4.8,8.8 "/>
<g>
	<g>
		<path style="fill:#A965BA;" d="M12.5,1.4c-0.2-0.2-0.7-0.1-0.9,0.1l-6.7,7l2,1.9l6.7-7c0.2-0.2,0.3-0.6,0.1-0.8L12.5,1.4z"/>
	</g>
</g>
<g>
	<path style="fill:none;stroke:#A965BA;stroke-width:0.5;stroke-linecap:round;stroke-miterlimit:10;" d="M3.7,3.5
		C3.4,3.7,3.2,3.9,2.9,4.1c-2.4,2.3-2.5,6.2-0.2,8.6c2.3,2.4,6.2,2.5,8.6,0.2c1.5-1.5,2.1-3.6,1.8-5.5"/>
	<path style="fill:none;stroke:#A965BA;stroke-width:0.5;stroke-miterlimit:10;" d="M3.7,3.5"/>
	<path style="fill:none;stroke:#A965BA;stroke-width:0.5;stroke-miterlimit:10;" d="M7.3,8.5"/>
</g>
</svg>
