<?xml version="1.0" encoding="UTF-8" standalone="no"?>
<!-- Created with Inkscape (http://www.inkscape.org/) -->

<svg
   xmlns:dc="http://purl.org/dc/elements/1.1/"
   xmlns:cc="http://creativecommons.org/ns#"
   xmlns:rdf="http://www.w3.org/1999/02/22-rdf-syntax-ns#"
   xmlns:svg="http://www.w3.org/2000/svg"
   xmlns="http://www.w3.org/2000/svg"
   version="1.1"
   width="600"
   height="641"
   id="svg2">
  <metadata
     id="metadata8">
    <rdf:RDF>
      <cc:Work
         rdf:about="">
        <dc:format>image/svg+xml</dc:format>
        <dc:type
           rdf:resource="http://purl.org/dc/dcmitype/StillImage" />
        <dc:title></dc:title>
      </cc:Work>
    </rdf:RDF>
  </metadata>
  <defs
     id="defs6" />
  <path
     d="M 570.5,638.09072 C 536.62094,607.45201 508.48733,570.55161 476.92484,537.41158 442.38612,499.27494 408.32018,460.69751 373.39136,422.92077 290.49126,486.94827 164.42148,482.98256 85.302709,414.57629 7.5511024,352.38653 -20.844557,238.1871 17.799513,146.59892 54.384221,54.757792 153.16494,-7.8640939 252.12168,1.3923338 362.1788,7.1492997 458.19675,101.49086 467.5358,211.04071 c 7.62514,67.06059 -17.30941,135.3716 -62.40257,184.82522 63.22436,71.76364 128.54568,141.68178 191.10861,214.02439 10.16721,16.32591 -8.29846,37.17155 -25.74184,28.2004 z M 251,426.96792 C 349.13365,420.86663 432.05642,329.10977 427.28812,230.76866 427.98198,133.29867 343.13105,44.688139 245.4,42.365858 149.60227,34.014385 56.973561,109.9159 44.028692,204.72796 32.545616,275.20463 63.480371,349.98466 121.96555,391.10865 158.85672,418.03084 205.48194,431.15909 251,426.96792 z"
     id="path2987"
     style="fill:#000000" />
</svg>
