<?xml version="1.0" encoding="utf-8"?>
<!-- Generator: Adobe Illustrator 18.1.1, SVG Export Plug-In . SVG Version: 6.00 Build 0)  -->
<!DOCTYPE svg PUBLIC "-//W3C//DTD SVG 1.1//EN" "http://www.w3.org/Graphics/SVG/1.1/DTD/svg11.dtd">
<svg version="1.1" id="Layer_1" xmlns="http://www.w3.org/2000/svg" xmlns:xlink="http://www.w3.org/1999/xlink" x="0px" y="0px"
	 viewBox="0 0 18 19" style="enable-background:new 0 0 18 19;" xml:space="preserve">
<g>
	<path style="fill:#FFE9F5;" d="M12,3.2c0.1,0,0.2,0,0.3,0c0.2,0,0.3,0,0.5,0.1c0.7,0.1,1.3,0.5,1.8,0.9c0,0,0.1,0,0.1,0
		c0.6-0.1,1.2-0.3,1.7-0.6c0.1-0.1,0.2-0.1,0.4-0.2c-0.3,0.8-0.8,1.4-1.4,1.8C16,5.2,16.6,5,17.2,4.7c0,0,0,0,0,0c0,0,0,0.1-0.1,0.1
		c-0.4,0.6-0.9,1.1-1.5,1.6c0,0-0.1,0.1-0.1,0.1c0,0.7,0,1.4-0.2,2.1c-0.2,1.2-0.6,2.3-1.3,3.3c-0.7,1.2-1.7,2.3-2.9,3
		c-1.5,1-3.2,1.4-5,1.5c-0.7,0-1.3,0-2-0.2C3.1,16.1,2,15.6,0.9,15c0,0,0,0,0,0c1.8,0.2,3.5-0.3,4.9-1.4c-0.5,0-0.9-0.1-1.3-0.3
		c-0.4-0.2-0.8-0.5-1.1-0.8c-0.3-0.3-0.5-0.7-0.7-1.2c0.5,0.1,1,0.1,1.5-0.1c-1.9-0.4-2.7-2.1-2.6-3.3C2,8.1,2.5,8.2,3,8.3
		c-0.7-0.5-1.2-1.2-1.4-2C1.5,5.4,1.6,4.6,2,3.8c1.8,2.1,4.1,3.3,6.9,3.5c0,0,0-0.1,0-0.1C8.8,6.6,8.8,6,9.1,5.4
		c0.4-1.1,1.3-1.9,2.5-2.1C11.7,3.2,11.9,3.2,12,3.2z"/>
</g>
</svg>
